<?xml version="1.0" encoding="UTF-8" standalone="no"?><!DOCTYPE svg PUBLIC "-//W3C//DTD SVG 1.1//EN" "http://www.w3.org/Graphics/SVG/1.1/DTD/svg11.dtd"><svg width="100%" height="100%" viewBox="0 0 24 24" version="1.1" xmlns="http://www.w3.org/2000/svg" xmlns:xlink="http://www.w3.org/1999/xlink" xml:space="preserve" xmlns:serif="http://www.serif.com/" style="fill-rule:evenodd;clip-rule:evenodd;stroke-linecap:round;stroke-linejoin:round;stroke-miterlimit:1.5;"><path d="M13.172,1l3.276,0c0,0 0.468,5.617 5.149,5.617l0,3.277c0,-0 -2.808,0.468 -5.149,-2.341l0,8.426c0,-0 0.541,7.021 -6.948,7.021c-7.491,0 -7,-7 -7,-7c0,0 0.374,-6.574 7.863,-6.574l0,3.276c0,0 -4.681,-0.468 -4.681,3.745c0,4.213 4.318,3.553 4.318,3.553c0,0 3.172,-0.277 3.172,-4.021l-0,-14.979Z" style="fill:none;stroke:#000;stroke-width:1.1px;"/></svg>