<?xml version="1.0" encoding="UTF-8" standalone="no"?><!DOCTYPE svg PUBLIC "-//W3C//DTD SVG 1.1//EN" "http://www.w3.org/Graphics/SVG/1.1/DTD/svg11.dtd"><svg width="100%" height="100%" viewBox="0 0 24 24" version="1.1" xmlns="http://www.w3.org/2000/svg" xmlns:xlink="http://www.w3.org/1999/xlink" xml:space="preserve" xmlns:serif="http://www.serif.com/" style="fill-rule:evenodd;clip-rule:evenodd;stroke-linejoin:round;stroke-miterlimit:2;"><path d="M19.81,5.133c1.054,0.525 2.084,0.685 2.591,0.63l-0,4.092c-0,-0 -1.447,-0.06 -2.521,-0.345c-1.25,-0.334 -2.125,-0.818 -2.38,-0.969c-0.051,-0.03 -0.743,-0.487 -0.793,-0.517l0,8.456c0,0.47 -0.124,1.646 -0.497,2.626c-0.327,0.838 -0.794,1.615 -1.382,2.296c-0,0 -0.92,1.141 -2.536,1.906c-1.457,0.691 -2.74,0.675 -3.123,0.691c0,-0 -2.212,0.089 -4.208,-1.267l-0.01,-0c-0.674,-0.471 -1.276,-1.038 -1.785,-1.685c-0.631,-0.805 -1.019,-1.76 -1.119,-2.04l0,-0.01c-0.159,-0.476 -0.492,-1.626 -0.442,-2.737c0.079,-1.956 0.736,-3.162 0.91,-3.462c0.457,-0.822 1.054,-1.559 1.764,-2.176c0.811,-0.68 1.754,-1.184 2.769,-1.481c1.016,-0.297 2.082,-0.38 3.131,-0.245l-0.005,4.197c-0.346,-0.113 -0.707,-0.17 -1.07,-0.17c-1.921,0 -3.477,1.566 -3.477,3.5c-0,1.934 1.556,3.5 3.477,3.5c0.598,0.001 1.185,-0.154 1.705,-0.45c0.499,-0.283 0.92,-0.685 1.227,-1.169c0.307,-0.485 0.491,-1.037 0.534,-1.609l0.015,-16.695l4.122,0c-0.006,0 -0.049,0.395 0.055,1.005l-0.005,0c0.124,0.736 0.462,1.786 1.367,2.822c0.362,0.391 0.769,0.737 1.214,1.031c0.152,0.099 0.31,0.191 0.472,0.275Zm-14.399,16.937c1.768,1.201 3.726,1.129 3.726,1.129c0.345,-0.013 1.501,0.008 2.812,-0.614c1.435,-0.679 2.256,-1.685 2.256,-1.685l0.017,-0.02c0.528,-0.612 0.947,-1.309 1.241,-2.061c0.332,-0.874 0.444,-1.921 0.444,-2.339l0,-10.48c0,-0 1.093,1.17 1.593,1.5c0.068,0.045 1.284,0.889 2.586,1.237c0.488,0.129 1.058,0.208 1.515,0.255c-0,0 -0,-1.3 -0,-2.012c-0.001,-0.26 -0.185,-0.483 -0.439,-0.533c-0.519,-0.109 -1.111,-0.3 -1.709,-0.598l-0.557,-0.324c-0.497,-0.329 -1.374,-1.172 -1.374,-1.172c-0.942,-1.077 -1.585,-3.447 -1.597,-3.553l-2.54,-0l-0.017,15.956c-0.054,0.702 -0.279,1.381 -0.656,1.976c-0.377,0.595 -0.895,1.088 -1.508,1.436c-0.64,0.365 -1.364,0.556 -2.101,0.555c-2.36,-0 -4.276,-1.923 -4.276,-4.3c-0,-2.377 1.916,-4.299 4.276,-4.3c0.091,0 0.182,0.003 0.272,0.009l0.003,-2.497c-0.71,-0.018 -1.42,0.073 -2.105,0.274c-0.907,0.265 -1.749,0.715 -2.479,1.326c-0.636,0.554 -1.17,1.215 -1.58,1.952l-0.007,0.013c-0.156,0.268 -0.732,1.346 -0.803,3.093l-0,0.003c-0.045,0.993 0.26,2.022 0.402,2.447c-0,-0 0.463,1.139 0.989,1.81c0.447,0.567 1.584,1.487 1.616,1.517Z" style="fill:#fff;"/></svg>